<?xml version="1.0" encoding="utf-8"?>
<!-- Generator: Adobe Illustrator 16.0.4, SVG Export Plug-In . SVG Version: 6.00 Build 0)  -->
<!DOCTYPE svg PUBLIC "-//W3C//DTD SVG 1.1//EN" "http://www.w3.org/Graphics/SVG/1.1/DTD/svg11.dtd">
<svg version="1.1" id="Lager_1" xmlns="http://www.w3.org/2000/svg" xmlns:xlink="http://www.w3.org/1999/xlink" x="0px" y="0px"
	 width="111.337px" height="74.901px" viewBox="0 0 111.337 74.901" enable-background="new 0 0 111.337 74.901"
	 xml:space="preserve">
<g>
	<circle fill="#90D0D8" cx="35.986" cy="38.714" r="35.411"/>
</g>
<g>
	<path fill="#7BC0C4" d="M55.367,68.349c-8.412-0.454-33.315-2.104-23.12-10.317c10.195-8.214-13.829-36.25,0-50.079
		c2.276-2.275,4.785-4.174,7.45-5.701C30.005,1.729,20.14,5.167,12.737,12.57c-13.829,13.829-13.829,36.25,0,50.079
		C24.291,74.201,41.84,76.1,55.367,68.349z"/>
</g>
<g>
	<circle fill="none" stroke="#0F7389" stroke-miterlimit="10" cx="37.45" cy="37.451" r="37.45"/>
	<circle fill="none" stroke="#12738A" stroke-miterlimit="10" cx="37.45" cy="37.451" r="37.419"/>
	<circle fill="none" stroke="#14748A" stroke-miterlimit="10" cx="37.45" cy="37.451" r="37.389"/>
	<circle fill="none" stroke="#17748B" stroke-miterlimit="10" cx="37.45" cy="37.45" r="37.358"/>
	<circle fill="none" stroke="#19758C" stroke-miterlimit="10" cx="37.45" cy="37.451" r="37.327"/>
	<circle fill="none" stroke="#1B758C" stroke-miterlimit="10" cx="37.45" cy="37.451" r="37.296"/>
	<circle fill="none" stroke="#1D768D" stroke-miterlimit="10" cx="37.45" cy="37.451" r="37.266"/>
	<circle fill="none" stroke="#1F768D" stroke-miterlimit="10" cx="37.45" cy="37.451" r="37.235"/>
	<circle fill="none" stroke="#21778E" stroke-miterlimit="10" cx="37.45" cy="37.451" r="37.205"/>
	<circle fill="none" stroke="#23788E" stroke-miterlimit="10" cx="37.45" cy="37.451" r="37.174"/>
	<circle fill="none" stroke="#25788F" stroke-miterlimit="10" cx="37.45" cy="37.451" r="37.143"/>
	<circle fill="none" stroke="#27798F" stroke-miterlimit="10" cx="37.45" cy="37.451" r="37.112"/>
	<circle fill="none" stroke="#287990" stroke-miterlimit="10" cx="37.45" cy="37.451" r="37.082"/>
	<circle fill="none" stroke="#2A7A91" stroke-miterlimit="10" cx="37.45" cy="37.451" r="37.051"/>
	<circle fill="none" stroke="#2B7B91" stroke-miterlimit="10" cx="37.45" cy="37.451" r="37.02"/>
	<circle fill="none" stroke="#2D7B92" stroke-miterlimit="10" cx="37.45" cy="37.45" r="36.989"/>
	<circle fill="none" stroke="#2F7C92" stroke-miterlimit="10" cx="37.45" cy="37.451" r="36.958"/>
	<circle fill="none" stroke="#307C93" stroke-miterlimit="10" cx="37.45" cy="37.451" r="36.927"/>
	<circle fill="none" stroke="#327D93" stroke-miterlimit="10" cx="37.45" cy="37.451" r="36.897"/>
	<circle fill="none" stroke="#337E94" stroke-miterlimit="10" cx="37.45" cy="37.45" r="36.867"/>
	<circle fill="none" stroke="#347E94" stroke-miterlimit="10" cx="37.45" cy="37.451" r="36.835"/>
	<circle fill="none" stroke="#367F95" stroke-miterlimit="10" cx="37.45" cy="37.451" r="36.804"/>
	<circle fill="none" stroke="#377F96" stroke-miterlimit="10" cx="37.45" cy="37.451" r="36.774"/>
	<circle fill="none" stroke="#398096" stroke-miterlimit="10" cx="37.45" cy="37.451" r="36.743"/>
	<circle fill="none" stroke="#3A8197" stroke-miterlimit="10" cx="37.45" cy="37.451" r="36.712"/>
	<circle fill="none" stroke="#3B8197" stroke-miterlimit="10" cx="37.45" cy="37.451" r="36.681"/>
	<circle fill="none" stroke="#3D8298" stroke-miterlimit="10" cx="37.45" cy="37.451" r="36.651"/>
	<circle fill="none" stroke="#3E8399" stroke-miterlimit="10" cx="37.45" cy="37.451" r="36.621"/>
	<circle fill="none" stroke="#3F8399" stroke-miterlimit="10" cx="37.45" cy="37.451" r="36.589"/>
	<circle fill="none" stroke="#40849A" stroke-miterlimit="10" cx="37.45" cy="37.451" r="36.559"/>
	<circle fill="none" stroke="#42849A" stroke-miterlimit="10" cx="37.45" cy="37.451" r="36.528"/>
	<circle fill="none" stroke="#43859B" stroke-miterlimit="10" cx="37.45" cy="37.45" r="36.497"/>
	<circle fill="none" stroke="#44869C" stroke-miterlimit="10" cx="37.45" cy="37.451" r="36.466"/>
	<circle fill="none" stroke="#45869C" stroke-miterlimit="10" cx="37.45" cy="37.451" r="36.436"/>
	<circle fill="none" stroke="#46879D" stroke-miterlimit="10" cx="37.45" cy="37.451" r="36.405"/>
	<circle fill="none" stroke="#48889D" stroke-miterlimit="10" cx="37.45" cy="37.451" r="36.375"/>
	<circle fill="none" stroke="#49889E" stroke-miterlimit="10" cx="37.45" cy="37.451" r="36.344"/>
	<circle fill="none" stroke="#4A899F" stroke-miterlimit="10" cx="37.45" cy="37.451" r="36.313"/>
	<circle fill="none" stroke="#4B8A9F" stroke-miterlimit="10" cx="37.45" cy="37.451" r="36.282"/>
	<circle fill="none" stroke="#4D8AA0" stroke-miterlimit="10" cx="37.45" cy="37.451" r="36.251"/>
	<circle fill="none" stroke="#4E8BA0" stroke-miterlimit="10" cx="37.45" cy="37.451" r="36.22"/>
	<circle fill="none" stroke="#4F8CA1" stroke-miterlimit="10" cx="37.45" cy="37.451" r="36.19"/>
	<circle fill="none" stroke="#508CA1" stroke-miterlimit="10" cx="37.45" cy="37.451" r="36.159"/>
	<circle fill="none" stroke="#518DA2" stroke-miterlimit="10" cx="37.45" cy="37.45" r="36.129"/>
	<circle fill="none" stroke="#538EA3" stroke-miterlimit="10" cx="37.45" cy="37.451" r="36.098"/>
	<circle fill="none" stroke="#548EA3" stroke-miterlimit="10" cx="37.45" cy="37.451" r="36.067"/>
	<circle fill="none" stroke="#558FA4" stroke-miterlimit="10" cx="37.45" cy="37.451" r="36.036"/>
	<circle fill="none" stroke="#568FA4" stroke-miterlimit="10" cx="37.45" cy="37.45" r="36.006"/>
	<circle fill="none" stroke="#5790A5" stroke-miterlimit="10" cx="37.45" cy="37.451" r="35.975"/>
	<circle fill="none" stroke="#5991A6" stroke-miterlimit="10" cx="37.45" cy="37.451" r="35.944"/>
	<circle fill="none" stroke="#5A91A6" stroke-miterlimit="10" cx="37.45" cy="37.451" r="35.914"/>
	<circle fill="none" stroke="#5B92A7" stroke-miterlimit="10" cx="37.45" cy="37.451" r="35.883"/>
	<circle fill="none" stroke="#5C93A7" stroke-miterlimit="10" cx="37.45" cy="37.451" r="35.852"/>
	<circle fill="none" stroke="#5D93A8" stroke-miterlimit="10" cx="37.45" cy="37.451" r="35.821"/>
	<circle fill="none" stroke="#5E94A9" stroke-miterlimit="10" cx="37.45" cy="37.451" r="35.791"/>
	<circle fill="none" stroke="#6095A9" stroke-miterlimit="10" cx="37.45" cy="37.451" r="35.76"/>
	<circle fill="none" stroke="#6195AA" stroke-miterlimit="10" cx="37.45" cy="37.451" r="35.729"/>
	<circle fill="none" stroke="#6296AA" stroke-miterlimit="10" cx="37.45" cy="37.451" r="35.698"/>
	<circle fill="none" stroke="#6397AB" stroke-miterlimit="10" cx="37.45" cy="37.451" r="35.667"/>
	<circle fill="none" stroke="#6497AC" stroke-miterlimit="10" cx="37.45" cy="37.45" r="35.637"/>
	<circle fill="none" stroke="#6598AC" stroke-miterlimit="10" cx="37.45" cy="37.451" r="35.606"/>
	<circle fill="none" stroke="#6799AD" stroke-miterlimit="10" cx="37.45" cy="37.451" r="35.575"/>
	<circle fill="none" stroke="#689AAE" stroke-miterlimit="10" cx="37.45" cy="37.451" r="35.544"/>
	<circle fill="none" stroke="#699AAE" stroke-miterlimit="10" cx="37.45" cy="37.451" r="35.514"/>
	<circle fill="none" stroke="#6A9BAF" stroke-miterlimit="10" cx="37.45" cy="37.451" r="35.483"/>
	<circle fill="none" stroke="#6B9CAF" stroke-miterlimit="10" cx="37.45" cy="37.451" r="35.452"/>
	<circle fill="none" stroke="#6C9CB0" stroke-miterlimit="10" cx="37.45" cy="37.451" r="35.421"/>
	<circle fill="none" stroke="#6D9DB1" stroke-miterlimit="10" cx="37.45" cy="37.451" r="35.391"/>
	<circle fill="none" stroke="#6F9EB1" stroke-miterlimit="10" cx="37.45" cy="37.451" r="35.36"/>
	<circle fill="none" stroke="#709FB2" stroke-miterlimit="10" cx="37.45" cy="37.451" r="35.33"/>
	<circle fill="none" stroke="#719FB2" stroke-miterlimit="10" cx="37.45" cy="37.451" r="35.299"/>
	<circle fill="none" stroke="#72A0B3" stroke-miterlimit="10" cx="37.45" cy="37.451" r="35.268"/>
	<circle fill="none" stroke="#73A1B4" stroke-miterlimit="10" cx="37.45" cy="37.451" r="35.237"/>
	<circle fill="none" stroke="#74A1B4" stroke-miterlimit="10" cx="37.45" cy="37.451" r="35.207"/>
	<circle fill="none" stroke="#75A2B5" stroke-miterlimit="10" cx="37.45" cy="37.451" r="35.176"/>
	<circle fill="none" stroke="#77A3B6" stroke-miterlimit="10" cx="37.45" cy="37.45" r="35.145"/>
	<circle fill="none" stroke="#78A4B6" stroke-miterlimit="10" cx="37.45" cy="37.451" r="35.114"/>
	<circle fill="none" stroke="#79A4B7" stroke-miterlimit="10" cx="37.45" cy="37.451" r="35.083"/>
	<circle fill="none" stroke="#7AA5B8" stroke-miterlimit="10" cx="37.45" cy="37.451" r="35.052"/>
	<circle fill="none" stroke="#7BA6B8" stroke-miterlimit="10" cx="37.45" cy="37.451" r="35.022"/>
	<circle fill="none" stroke="#7CA7B9" stroke-miterlimit="10" cx="37.45" cy="37.451" r="34.991"/>
	<circle fill="none" stroke="#7DA7B9" stroke-miterlimit="10" cx="37.45" cy="37.451" r="34.96"/>
	<circle fill="none" stroke="#7EA8BA" stroke-miterlimit="10" cx="37.45" cy="37.451" r="34.929"/>
	<circle fill="none" stroke="#7FA9BB" stroke-miterlimit="10" cx="37.45" cy="37.451" r="34.899"/>
	<circle fill="none" stroke="#81A9BB" stroke-miterlimit="10" cx="37.45" cy="37.451" r="34.868"/>
	<circle fill="none" stroke="#82AABC" stroke-miterlimit="10" cx="37.45" cy="37.451" r="34.837"/>
	<circle fill="none" stroke="#83ABBD" stroke-miterlimit="10" cx="37.45" cy="37.451" r="34.806"/>
	<circle fill="none" stroke="#84ACBD" stroke-miterlimit="10" cx="37.45" cy="37.451" r="34.776"/>
	<circle fill="none" stroke="#85ACBE" stroke-miterlimit="10" cx="37.45" cy="37.451" r="34.745"/>
	<circle fill="none" stroke="#86ADBF" stroke-miterlimit="10" cx="37.45" cy="37.451" r="34.714"/>
	<circle fill="none" stroke="#87AEBF" stroke-miterlimit="10" cx="37.45" cy="37.451" r="34.684"/>
	<circle fill="none" stroke="#88AFC0" stroke-miterlimit="10" cx="37.45" cy="37.451" r="34.653"/>
	<circle fill="none" stroke="#89AFC1" stroke-miterlimit="10" cx="37.45" cy="37.451" r="34.622"/>
	<circle fill="none" stroke="#8AB0C1" stroke-miterlimit="10" cx="37.45" cy="37.451" r="34.592"/>
	<circle fill="none" stroke="#8BB1C2" stroke-miterlimit="10" cx="37.45" cy="37.451" r="34.561"/>
	<circle fill="none" stroke="#8CB2C2" stroke-miterlimit="10" cx="37.45" cy="37.451" r="34.53"/>
	<circle fill="none" stroke="#8DB2C3" stroke-miterlimit="10" cx="37.45" cy="37.451" r="34.5"/>
	<circle fill="none" stroke="#8EB3C4" stroke-miterlimit="10" cx="37.45" cy="37.451" r="34.469"/>
	<circle fill="none" stroke="#8FB4C4" stroke-miterlimit="10" cx="37.45" cy="37.451" r="34.438"/>
	<circle fill="none" stroke="#90B5C5" stroke-miterlimit="10" cx="37.45" cy="37.451" r="34.407"/>
	<circle fill="none" stroke="#91B5C6" stroke-miterlimit="10" cx="37.45" cy="37.451" r="34.376"/>
	<circle fill="none" stroke="#92B6C6" stroke-miterlimit="10" cx="37.45" cy="37.451" r="34.345"/>
	<circle fill="none" stroke="#93B7C7" stroke-miterlimit="10" cx="37.45" cy="37.451" r="34.315"/>
	<circle fill="none" stroke="#94B8C8" stroke-miterlimit="10" cx="37.45" cy="37.451" r="34.284"/>
	<circle fill="none" stroke="#95B8C8" stroke-miterlimit="10" cx="37.45" cy="37.451" r="34.253"/>
	<circle fill="none" stroke="#96B9C9" stroke-miterlimit="10" cx="37.45" cy="37.451" r="34.223"/>
	<circle fill="none" stroke="#97BACA" stroke-miterlimit="10" cx="37.45" cy="37.451" r="34.192"/>
	<circle fill="none" stroke="#98BBCA" stroke-miterlimit="10" cx="37.45" cy="37.451" r="34.161"/>
	<circle fill="none" stroke="#99BBCB" stroke-miterlimit="10" cx="37.45" cy="37.451" r="34.131"/>
	<circle fill="none" stroke="#9ABCCC" stroke-miterlimit="10" cx="37.45" cy="37.451" r="34.1"/>
	<circle fill="none" stroke="#9BBDCC" stroke-miterlimit="10" cx="37.45" cy="37.451" r="34.069"/>
	<circle fill="none" stroke="#9CBECD" stroke-miterlimit="10" cx="37.45" cy="37.451" r="34.039"/>
	<circle fill="none" stroke="#9EBFCE" stroke-miterlimit="10" cx="37.45" cy="37.451" r="34.008"/>
	<circle fill="none" stroke="#9FBFCE" stroke-miterlimit="10" cx="37.45" cy="37.451" r="33.977"/>
	<circle fill="none" stroke="#A0C0CF" stroke-miterlimit="10" cx="37.45" cy="37.451" r="33.946"/>
	<circle fill="none" stroke="#A1C1D0" stroke-miterlimit="10" cx="37.45" cy="37.451" r="33.916"/>
	<circle fill="none" stroke="#A2C2D0" stroke-miterlimit="10" cx="37.45" cy="37.451" r="33.885"/>
	<circle fill="none" stroke="#A3C2D1" stroke-miterlimit="10" cx="37.45" cy="37.451" r="33.854"/>
	<circle fill="none" stroke="#A4C3D2" stroke-miterlimit="10" cx="37.45" cy="37.451" r="33.823"/>
	<circle fill="none" stroke="#A5C4D2" stroke-miterlimit="10" cx="37.45" cy="37.451" r="33.792"/>
	<circle fill="none" stroke="#A6C5D3" stroke-miterlimit="10" cx="37.45" cy="37.451" r="33.761"/>
	<circle fill="none" stroke="#A7C6D4" stroke-miterlimit="10" cx="37.45" cy="37.451" r="33.73"/>
	<circle fill="none" stroke="#A8C6D4" stroke-miterlimit="10" cx="37.45" cy="37.451" r="33.7"/>
	<circle fill="none" stroke="#A9C7D5" stroke-miterlimit="10" cx="37.45" cy="37.451" r="33.669"/>
	<circle fill="none" stroke="#AAC8D6" stroke-miterlimit="10" cx="37.45" cy="37.451" r="33.638"/>
	<circle fill="none" stroke="#ABC9D7" stroke-miterlimit="10" cx="37.45" cy="37.451" r="33.608"/>
	<circle fill="none" stroke="#ACCAD7" stroke-miterlimit="10" cx="37.45" cy="37.451" r="33.577"/>
	<circle fill="none" stroke="#ADCAD8" stroke-miterlimit="10" cx="37.45" cy="37.451" r="33.546"/>
	<circle fill="none" stroke="#AECBD9" stroke-miterlimit="10" cx="37.45" cy="37.451" r="33.516"/>
	<circle fill="none" stroke="#AFCCD9" stroke-miterlimit="10" cx="37.45" cy="37.451" r="33.485"/>
	<circle fill="none" stroke="#B0CDDA" stroke-miterlimit="10" cx="37.45" cy="37.451" r="33.454"/>
	<circle fill="none" stroke="#B1CEDB" stroke-miterlimit="10" cx="37.45" cy="37.451" r="33.424"/>
	<circle fill="none" stroke="#B3CFDC" stroke-miterlimit="10" cx="37.45" cy="37.451" r="33.393"/>
	<circle fill="none" stroke="#B4CFDC" stroke-miterlimit="10" cx="37.45" cy="37.451" r="33.362"/>
	<circle fill="none" stroke="#B5D0DD" stroke-miterlimit="10" cx="37.45" cy="37.451" r="33.331"/>
	<circle fill="none" stroke="#B6D1DE" stroke-miterlimit="10" cx="37.45" cy="37.451" r="33.301"/>
	<circle fill="none" stroke="#B7D2DE" stroke-miterlimit="10" cx="37.45" cy="37.451" r="33.27"/>
	<circle fill="none" stroke="#B8D3DF" stroke-miterlimit="10" cx="37.45" cy="37.451" r="33.239"/>
	<circle fill="none" stroke="#B9D4E0" stroke-miterlimit="10" cx="37.45" cy="37.451" r="33.208"/>
	<circle fill="none" stroke="#BAD4E1" stroke-miterlimit="10" cx="37.45" cy="37.451" r="33.177"/>
	<circle fill="none" stroke="#BBD5E1" stroke-miterlimit="10" cx="37.45" cy="37.451" r="33.146"/>
	<circle fill="none" stroke="#BCD6E2" stroke-miterlimit="10" cx="37.45" cy="37.451" r="33.116"/>
	<circle fill="none" stroke="#BDD7E3" stroke-miterlimit="10" cx="37.45" cy="37.451" r="33.085"/>
	<circle fill="none" stroke="#BED8E3" stroke-miterlimit="10" cx="37.45" cy="37.451" r="33.054"/>
	<circle fill="none" stroke="#BFD9E4" stroke-miterlimit="10" cx="37.45" cy="37.451" r="33.024"/>
	<circle fill="none" stroke="#C0D9E5" stroke-miterlimit="10" cx="37.45" cy="37.451" r="32.993"/>
	<circle fill="none" stroke="#C1DAE6" stroke-miterlimit="10" cx="37.45" cy="37.451" r="32.962"/>
	<circle fill="none" stroke="#C2DBE6" stroke-miterlimit="10" cx="37.45" cy="37.451" r="32.931"/>
	<circle fill="none" stroke="#C3DCE7" stroke-miterlimit="10" cx="37.45" cy="37.451" r="32.901"/>
	<circle fill="none" stroke="#C4DDE8" stroke-miterlimit="10" cx="37.45" cy="37.451" r="32.87"/>
	<circle fill="none" stroke="#C5DEE9" stroke-miterlimit="10" cx="37.45" cy="37.451" r="32.839"/>
	<circle fill="none" stroke="#C6DFE9" stroke-miterlimit="10" cx="37.45" cy="37.451" r="32.809"/>
	<circle fill="none" stroke="#C7DFEA" stroke-miterlimit="10" cx="37.45" cy="37.451" r="32.778"/>
	<circle fill="none" stroke="#C8E0EB" stroke-miterlimit="10" cx="37.45" cy="37.451" r="32.747"/>
	<circle fill="none" stroke="#C9E1EB" stroke-miterlimit="10" cx="37.45" cy="37.451" r="32.717"/>
	<circle fill="none" stroke="#CAE2EC" stroke-miterlimit="10" cx="37.45" cy="37.451" r="32.686"/>
	<circle fill="none" stroke="#CBE3ED" stroke-miterlimit="10" cx="37.45" cy="37.451" r="32.655"/>
	<circle fill="none" stroke="#CCE4EE" stroke-miterlimit="10" cx="37.45" cy="37.451" r="32.624"/>
	<circle fill="none" stroke="#CDE4EE" stroke-miterlimit="10" cx="37.45" cy="37.451" r="32.594"/>
	<circle fill="none" stroke="#CEE5EF" stroke-miterlimit="10" cx="37.45" cy="37.451" r="32.562"/>
	<circle fill="none" stroke="#CFE6F0" stroke-miterlimit="10" cx="37.45" cy="37.451" r="32.532"/>
	<circle fill="none" stroke="#D0E7F1" stroke-miterlimit="10" cx="37.45" cy="37.451" r="32.501"/>
	<circle fill="none" stroke="#D1E8F1" stroke-miterlimit="10" cx="37.45" cy="37.451" r="32.47"/>
	<circle fill="none" stroke="#D2E9F2" stroke-miterlimit="10" cx="37.45" cy="37.451" r="32.439"/>
	<circle fill="none" stroke="#D3E9F3" stroke-miterlimit="10" cx="37.45" cy="37.451" r="32.409"/>
	<circle fill="none" stroke="#D4EAF3" stroke-miterlimit="10" cx="37.45" cy="37.451" r="32.378"/>
	<circle fill="none" stroke="#D5EBF4" stroke-miterlimit="10" cx="37.45" cy="37.451" r="32.348"/>
	<circle fill="none" stroke="#D6ECF5" stroke-miterlimit="10" cx="37.45" cy="37.451" r="32.316"/>
	<circle fill="none" stroke="#D7EDF6" stroke-miterlimit="10" cx="37.45" cy="37.451" r="32.286"/>
	<circle fill="none" stroke="#D8EEF6" stroke-miterlimit="10" cx="37.45" cy="37.451" r="32.255"/>
	<circle fill="none" stroke="#D9EFF7" stroke-miterlimit="10" cx="37.45" cy="37.451" r="32.225"/>
</g>
<g opacity="0.7">
	<circle fill="#FFFFFF" cx="17.557" cy="24.357" r="1.112"/>
</g>
<g opacity="0.7">
	<circle fill="#FFFFFF" cx="21.065" cy="27.546" r="1.112"/>
</g>
<g opacity="0.7">
	<circle fill="#FFFFFF" cx="24.254" cy="30.735" r="1.113"/>
</g>
<g opacity="0.4">
	<circle fill="#FFFFFF" cx="40.198" cy="10.49" r="1.112"/>
</g>
<g opacity="0.4">
	<circle fill="#FFFFFF" cx="37.009" cy="46.68" r="1.113"/>
</g>
<g opacity="0.7">
	<circle fill="#FFFFFF" cx="47.688" cy="42.378" r="1.112"/>
</g>
<g opacity="0.7">
	<circle fill="#FFFFFF" cx="48.8" cy="37.451" r="1.112"/>
</g>
<g opacity="0.4">
	<circle fill="#FFFFFF" cx="35.897" cy="27.546" r="1.113"/>
</g>
<g opacity="0.7">
	<circle fill="#FFFFFF" cx="43.387" cy="27.546" r="1.112"/>
</g>
<g opacity="0.7">
	<circle fill="#FFFFFF" cx="46.576" cy="21.169" r="1.112"/>
</g>
<g opacity="0.7">
	<circle fill="#FFFFFF" cx="52.953" cy="21.169" r="1.112"/>
</g>
<g opacity="0.4">
	<circle fill="#FFFFFF" cx="54.065" cy="33.924" r="1.112"/>
</g>
<g opacity="0.7">
	<circle fill="#FFFFFF" cx="63.239" cy="30.735" r="1.112"/>
</g>
<g opacity="0.3">
	<circle fill="#FFFFFF" cx="54.065" cy="43.49" r="1.112"/>
</g>
<g opacity="0.3">
	<circle fill="#FFFFFF" cx="43.387" cy="53.057" r="1.112"/>
</g>
<g opacity="0.7">
	<circle fill="#FFFFFF" cx="40.198" cy="56.246" r="1.112"/>
</g>
<g opacity="0.7">
	<circle fill="#FFFFFF" cx="37.009" cy="59.435" r="1.113"/>
</g>
<g opacity="0.7">
	<circle fill="#FFFFFF" cx="33.82" cy="59.435" r="1.112"/>
</g>
<g opacity="0.7">
	<circle fill="#FFFFFF" cx="25.366" cy="59.435" r="1.113"/>
</g>
<g opacity="0.7">
	<circle fill="#FFFFFF" cx="29.519" cy="45.567" r="1.112"/>
</g>
<g opacity="0.7">
	<circle fill="#FFFFFF" cx="24.254" cy="46.68" r="1.113"/>
</g>
<g opacity="0.7">
	<circle fill="#FFFFFF" cx="19.953" cy="51.944" r="1.112"/>
</g>
<g opacity="0.4">
	<circle fill="#FFFFFF" cx="14.687" cy="40.302" r="1.112"/>
</g>
<g opacity="0.7">
	<circle fill="#FFFFFF" cx="13.575" cy="45.567" r="1.112"/>
</g>
<g opacity="0.7">
	<circle fill="#FFFFFF" cx="34.933" cy="36" r="1.112"/>
</g>
<g opacity="0.7">
	<circle fill="#FFFFFF" cx="24.254" cy="37.113" r="1.113"/>
</g>
<g opacity="0.7">
	<circle fill="#FFFFFF" cx="52.953" cy="53.057" r="1.112"/>
</g>
<g opacity="0.3">
	<circle fill="#FFFFFF" cx="24.254" cy="30.735" r="1.113"/>
</g>
<g opacity="0.7">
	<circle fill="#FFFFFF" cx="27.442" cy="27.546" r="1.112"/>
</g>
<g opacity="0.7">
	<circle fill="#FFFFFF" cx="27.442" cy="24.357" r="1.112"/>
</g>
<g opacity="0.7">
	<circle fill="#FFFFFF" cx="33.82" cy="21.169" r="1.112"/>
</g>
<g opacity="0.7">
	<circle fill="#FFFFFF" cx="30.631" cy="17.98" r="1.112"/>
</g>
<g opacity="0.3">
	<circle fill="#FFFFFF" cx="24.254" cy="11.602" r="1.113"/>
</g>
<g>
	<polygon fill="#4DAD33" points="62.777,34.893 107.725,12.285 111.208,20.629 64.557,39.333 	"/>
</g>
<g>
	<polygon fill="#449335" points="60.998,30.453 107.649,11.75 108.443,14.198 62.777,34.893 	"/>
</g>
<g>
	
		<ellipse transform="matrix(-0.928 0.3725 -0.3725 -0.928 217.0134 -9.5453)" fill="#257331" cx="109.429" cy="16.189" rx="0.741" ry="4.783"/>
</g>
<g>
	<path fill="#4DAD33" d="M54.49,38.216c0.967,2.411,3.705,3.582,6.116,2.615l4.396-1.677l-1.78-4.439L54.49,38.216z"/>
</g>
<g>
	<path fill="#449335" d="M56.415,32.45L48.8,41.266l0.083,0.114c-0.731,0.633-1.196,1.564-1.196,2.607c0,1.906,1.544,3.45,3.45,3.45
		c0.667,0,1.287-0.192,1.814-0.52l0,0.001l0.005-0.004c0.328-0.205,0.621-0.461,0.863-0.76l5.725-5.041L56.415,32.45z"/>
</g>
<g opacity="0.3">
	<path fill="#449335" d="M50.445,39.7l-6.534,7.564l0.072,0.098c-0.628,0.543-1.026,1.343-1.026,2.238c0,1.635,1.325,2.96,2.96,2.96
		c0.572,0,1.104-0.165,1.557-0.446l0,0.001l0.004-0.003c0.282-0.176,0.533-0.396,0.741-0.652l4.912-4.325L50.445,39.7z"/>
</g>
<g opacity="0.3">
	<path fill="#51A540" d="M44.606,50.926c-0.192,0.237-0.422,0.442-0.679,0.61c0.52,0.45,1.195,0.725,1.937,0.725
		c0.572,0,1.104-0.165,1.557-0.446l0,0.001l0.004-0.003c0.281-0.176,0.532-0.396,0.74-0.652l4.912-4.325l-0.784-2.17L44.606,50.926z
		"/>
</g>
<g>
	<path fill="#51A540" d="M49.61,45.859c-0.224,0.277-0.493,0.516-0.791,0.711c0.605,0.525,1.393,0.845,2.257,0.845
		c0.667,0,1.287-0.192,1.815-0.52l0,0.001l0.005-0.004c0.328-0.205,0.62-0.461,0.862-0.76l5.725-5.041l-0.913-2.529L49.61,45.859z"
		/>
</g>
<g>
	<path fill="#449335" d="M54.49,38.216c-0.966-2.412,0.204-5.149,2.615-6.116l4.336-1.824l1.78,4.439L54.49,38.216z"/>
</g>
<g>
	<g>
		<polygon fill="#265C29" points="58.746,31.409 58.452,31.533 61.971,40.311 62.269,40.196 		"/>
	</g>
	<g>
		<polygon fill="#265C29" points="60.779,40.765 61.078,40.651 57.57,31.904 57.276,32.027 		"/>
	</g>
	<g>
		<path fill="#265C29" d="M54.956,39.093l-0.736-1.834c0.056,0.322,0.144,0.642,0.27,0.957
			C54.616,38.53,54.774,38.823,54.956,39.093z"/>
	</g>
	<g>
		<path fill="#265C29" d="M54.238,35.589c-0.041,0.218-0.067,0.439-0.078,0.663l1.448,3.611c0.162,0.154,0.334,0.296,0.515,0.425
			L54.238,35.589z"/>
	</g>
	<g>
		<polygon fill="#265C29" points="61.375,40.537 61.673,40.424 58.158,31.656 57.864,31.78 		"/>
	</g>
	<g>
		<path fill="#265C29" d="M60.177,40.978c0.102-0.029,0.202-0.066,0.303-0.104l-3.496-8.719c-0.098,0.042-0.196,0.085-0.29,0.134
			L60.177,40.978z"/>
	</g>
	<g>
		<path fill="#265C29" d="M57.415,40.942c0.127,0.04,0.256,0.074,0.386,0.104l-2.873-7.164c-0.073,0.111-0.143,0.225-0.207,0.342
			L57.415,40.942z"/>
	</g>
	<g>
		<path fill="#265C29" d="M59.545,41.114c0.106-0.017,0.213-0.037,0.319-0.06l-3.45-8.605c-0.093,0.057-0.184,0.116-0.271,0.178
			L59.545,41.114z"/>
	</g>
	<g>
		<path fill="#265C29" d="M56.583,40.583c0.14,0.076,0.281,0.146,0.428,0.209l-2.478-6.181c-0.062,0.146-0.117,0.295-0.165,0.446
			L56.583,40.583z"/>
	</g>
	<g>
		<path fill="#265C29" d="M58.171,41.114c0.118,0.019,0.238,0.03,0.358,0.039L55.382,33.3c-0.081,0.089-0.159,0.181-0.233,0.276
			L58.171,41.114z"/>
	</g>
	<g>
		<path fill="#265C29" d="M58.878,41.166c0.113-0.001,0.227-0.002,0.34-0.011l-3.341-8.332c-0.088,0.072-0.17,0.149-0.252,0.227
			L58.878,41.166z"/>
	</g>
</g>
</svg>
