<?xml version="1.0" encoding="utf-8"?>
<!-- Generator: Adobe Illustrator 16.0.4, SVG Export Plug-In . SVG Version: 6.00 Build 0)  -->
<!DOCTYPE svg PUBLIC "-//W3C//DTD SVG 1.1//EN" "http://www.w3.org/Graphics/SVG/1.1/DTD/svg11.dtd">
<svg version="1.1" id="Lager_1" xmlns="http://www.w3.org/2000/svg" xmlns:xlink="http://www.w3.org/1999/xlink" x="0px" y="0px"
	 width="252.03px" height="244.309px" viewBox="0 0 252.03 244.309" enable-background="new 0 0 252.03 244.309"
	 xml:space="preserve">
<g>
	<path fill="#828282" d="M52.474,241.886c-0.002,0-0.002,0-0.004,0c-10.114,0-19.965-2.919-28.49-8.439
		c-11.771-7.622-19.868-19.373-22.801-33.086c-2.933-13.714-0.35-27.748,7.273-39.519c9.718-15.006,26.208-23.965,44.11-23.965
		c5.218,0,10.371,0.771,15.337,2.297l59.825-92.379l23.649,15.315l-59.741,92.248c15.81,17.621,17.887,43.585,4.951,63.561
		C86.865,232.926,70.374,241.886,52.474,241.886z M52.562,139.877c-16.881,0-32.43,8.447-41.593,22.596
		c-7.187,11.098-9.623,24.33-6.857,37.26c2.765,12.93,10.4,24.009,21.498,31.196c8.038,5.205,17.325,7.957,26.859,7.957
		c0.001,0,0.003,0,0.004,0c16.88,0.001,32.428-8.447,41.593-22.599c12.399-19.146,10.172-44.125-5.417-60.745l-0.803-0.856
		l59.379-91.688l-18.613-12.055L69.164,142.74l-1.101-0.364C63.063,140.717,57.848,139.877,52.562,139.877z"/>
</g>
<g>
	<path fill="#DBDBDB" d="M84.63,161.633c-2.06-4.6-4.574-8.836-7.438-12.697l60.645-93.228l10.52,6.819l-59.669,92.059
		c7.649,8.357,12.84,22.381,11.51,25.619S91.018,175.899,84.63,161.633z"/>
</g>
<g>
	
		<ellipse transform="matrix(0.8394 0.5436 -0.5436 0.8394 52.3576 -66.6794)" fill="#FFFFFF" cx="138.995" cy="55.245" rx="12.588" ry="3.275"/>
	<path fill="#7C7C7C" d="M148.14,64.121c-2.605,0-7.104-1.866-11.74-4.868c-1.211-0.784-11.751-7.77-9.229-11.666
		c0.36-0.556,1.117-1.218,2.68-1.218c2.604,0,7.104,1.866,11.741,4.869c1.209,0.784,11.75,7.769,9.229,11.665
		C150.46,63.458,149.702,64.121,148.14,64.121z M129.905,49.37c0.578,1.234,3.139,4.137,8.125,7.365
		c4.6,2.98,8.414,4.355,10.053,4.386c-0.578-1.235-3.14-4.137-8.123-7.365C135.359,50.776,131.545,49.401,129.905,49.37z"/>
</g>
<g>
	<path fill="#8FD1F5" d="M59.241,28.233c-2.871,0-5.207-2.335-5.207-5.207c0-2.871,2.335-5.206,5.207-5.206
		c2.871,0,5.206,2.335,5.206,5.206C64.447,25.897,62.111,28.233,59.241,28.233z M59.241,18.82c-2.319,0-4.207,1.887-4.207,4.206
		s1.887,4.207,4.207,4.207s4.206-1.887,4.206-4.207S61.56,18.82,59.241,18.82z"/>
</g>
<g>
	<path fill="#8FD1F5" d="M67.243,47.844c-4.31,0-7.815-3.506-7.815-7.815c0-4.309,3.506-7.814,7.815-7.814
		c4.309,0,7.814,3.505,7.814,7.814C75.057,44.338,71.552,47.844,67.243,47.844z M67.243,33.715c-3.482,0-6.314,2.832-6.314,6.313
		c0,3.482,2.833,6.314,6.314,6.314c3.481,0,6.313-2.833,6.313-6.314C73.556,36.547,70.724,33.715,67.243,33.715z"/>
</g>
<g>
	<path fill="#8FD1F5" d="M77.54,31.649c-1.833,0-3.325-1.492-3.325-3.325c0-1.833,1.492-3.324,3.325-3.324
		c1.833,0,3.324,1.491,3.324,3.324C80.864,30.158,79.373,31.649,77.54,31.649z M77.54,25.64c-1.481,0-2.686,1.205-2.686,2.685
		c0,1.481,1.205,2.686,2.686,2.686c1.48,0,2.685-1.205,2.685-2.686C80.225,26.844,79.021,25.64,77.54,25.64z"/>
</g>
<g>
	<path fill="#8FD1F5" d="M69.54,18.649c-1.833,0-3.325-1.492-3.325-3.325c0-1.833,1.492-3.324,3.325-3.324
		c1.833,0,3.324,1.491,3.324,3.324C72.863,17.157,71.372,18.649,69.54,18.649z M69.54,12.639c-1.481,0-2.686,1.205-2.686,2.685
		c0,1.481,1.205,2.686,2.686,2.686c1.48,0,2.685-1.205,2.685-2.686C72.225,13.844,71.02,12.639,69.54,12.639z"/>
</g>
<g>
	<path fill="#8FD1F5" d="M69.54,17.649c-1.833,0-3.325-1.492-3.325-3.325c0-1.833,1.492-3.324,3.325-3.324
		c1.833,0,3.324,1.491,3.324,3.324C72.863,16.157,71.372,17.649,69.54,17.649z M69.54,11.639c-1.481,0-2.686,1.205-2.686,2.685
		c0,1.481,1.205,2.686,2.686,2.686c1.48,0,2.685-1.205,2.685-2.686C72.225,12.844,71.02,11.639,69.54,11.639z"/>
</g>
<g>
	<path fill="#8FD1F5" d="M79.54,18.649c-1.833,0-3.325-1.492-3.325-3.325c0-1.833,1.492-3.324,3.325-3.324
		c1.833,0,3.324,1.491,3.324,3.324C82.864,17.157,81.373,18.649,79.54,18.649z M79.54,12.639c-1.481,0-2.686,1.205-2.686,2.685
		c0,1.481,1.205,2.686,2.686,2.686c1.48,0,2.685-1.205,2.685-2.686C82.225,13.844,81.021,12.639,79.54,12.639z"/>
</g>
<g>
	<path fill="#8FD1F5" d="M59.539,6.648c-1.833,0-3.325-1.492-3.325-3.325C56.214,1.491,57.706,0,59.539,0
		c1.833,0,3.324,1.491,3.324,3.324C62.863,5.157,61.372,6.648,59.539,6.648z M59.539,0.639c-1.481,0-2.686,1.205-2.686,2.685
		c0,1.481,1.205,2.686,2.686,2.686c1.48,0,2.685-1.205,2.685-2.686C62.224,1.843,61.02,0.639,59.539,0.639z"/>
</g>
<g>
	<path fill="#F6B19E" d="M147.784,45.336c-4.236,0-7.683-3.446-7.683-7.682c0-4.235,3.446-7.681,7.683-7.681
		c4.234,0,7.681,3.446,7.681,7.681C155.465,41.89,152.019,45.336,147.784,45.336z M147.784,31.182c-3.57,0-6.474,2.903-6.474,6.472
		c0,3.569,2.903,6.473,6.474,6.473c3.568,0,6.472-2.904,6.472-6.473C154.256,34.085,151.353,31.182,147.784,31.182z"/>
</g>
<g>
	<path fill="#F6B19E" d="M135.292,34.049c-1.52,0-2.756-1.237-2.756-2.757s1.236-2.756,2.756-2.756c1.521,0,2.757,1.236,2.757,2.756
		S136.812,34.049,135.292,34.049z M135.292,28.969c-1.28,0-2.322,1.042-2.322,2.323s1.042,2.323,2.322,2.323
		c1.281,0,2.323-1.042,2.323-2.323S136.573,28.969,135.292,28.969z"/>
</g>
<g>
	<path fill="#F6B19E" d="M148.278,24.839c-1.521,0-2.758-1.237-2.758-2.757s1.237-2.756,2.758-2.756c1.52,0,2.756,1.236,2.756,2.756
		S149.798,24.839,148.278,24.839z M148.278,19.76c-1.281,0-2.324,1.042-2.324,2.323s1.043,2.323,2.324,2.323
		c1.28,0,2.322-1.042,2.322-2.323S149.559,19.76,148.278,19.76z"/>
</g>
<g>
	<path fill="#F6B19E" d="M159.778,16.373c-2.09,0-3.791-1.701-3.791-3.791c0-2.09,1.701-3.79,3.791-3.79s3.79,1.7,3.79,3.79
		C163.568,14.672,161.868,16.373,159.778,16.373z M159.778,9.389c-1.762,0-3.194,1.433-3.194,3.193c0,1.761,1.433,3.194,3.194,3.194
		c1.761,0,3.193-1.433,3.193-3.194C162.972,10.821,161.539,9.389,159.778,9.389z"/>
</g>
<g>
	<path fill="#F6B19E" d="M143.962,32.357c-1.521,0-2.758-1.237-2.758-2.757s1.237-2.756,2.758-2.756c1.52,0,2.756,1.236,2.756,2.756
		S145.481,32.357,143.962,32.357z M143.962,27.277c-1.281,0-2.324,1.042-2.324,2.323s1.043,2.323,2.324,2.323
		c1.28,0,2.322-1.042,2.322-2.323S145.242,27.277,143.962,27.277z"/>
</g>
<g>
	<path fill="#FFFFFF" d="M123.709,156.94L64.153,64.979l21.131-13.685l59.633,92.082c21.509-7.13,45.933,0.801,58.824,20.707
		c15.312,23.641,8.558,55.219-15.085,70.528c-23.641,15.311-55.219,8.557-70.529-15.084
		C105.122,199.444,108.045,173.641,123.709,156.94z"/>
	<path fill="#828282" d="M160.983,244.309c-17.904,0-34.395-8.959-44.114-23.967c-12.937-19.976-10.86-45.939,4.951-63.561
		L62.079,64.535l23.649-15.315l59.825,92.379c4.966-1.524,10.119-2.297,15.337-2.297c17.902,0,34.392,8.959,44.11,23.965
		c7.623,11.771,10.206,25.806,7.273,39.519c-2.934,13.713-11.031,25.463-22.801,33.085
		C180.948,241.391,171.096,244.309,160.983,244.309z M66.228,65.422l59.379,91.688l-0.803,0.857
		c-15.589,16.619-17.816,41.598-5.417,60.744c9.165,14.15,24.714,22.598,41.597,22.598c9.533,0,18.82-2.751,26.859-7.957
		c11.098-7.187,18.732-18.266,21.498-31.195s0.33-26.162-6.857-37.26c-9.163-14.148-24.712-22.596-41.593-22.596
		c-5.285,0-10.501,0.84-15.501,2.498l-1.101,0.365L84.841,53.368L66.228,65.422z"/>
</g>
<g>
	<path fill="#DBDBDB" d="M148.19,150.618c-5.039,0-9.934,0.562-14.629,1.6L73.26,58.768l10.523-6.814l59.633,92.083
		c21.509-7.131,45.933,0.799,58.824,20.705c6.896,10.648,9.302,22.904,7.72,34.561C205.349,171.731,179.45,150.618,148.19,150.618z"
		/>
</g>
<g>
	
		<ellipse transform="matrix(-0.8394 0.5436 -0.5436 -0.8394 166.7508 64.2101)" fill="#FFFFFF" cx="73.887" cy="56.745" rx="12.588" ry="3.275"/>
	<path fill="#7C7C7C" d="M64.744,65.621C64.743,65.621,64.743,65.621,64.744,65.621c-1.563,0-2.321-0.663-2.681-1.218
		c-2.521-3.896,8.019-10.881,9.229-11.666c4.637-3.002,9.136-4.868,11.741-4.868c1.562,0,2.32,0.662,2.679,1.218
		c2.523,3.896-8.019,10.882-9.229,11.666C71.847,63.755,67.348,65.621,64.744,65.621z M82.977,50.87
		c-1.639,0.031-5.454,1.407-10.054,4.386c-4.984,3.228-7.546,6.13-8.124,7.365c1.638-0.031,5.453-1.406,10.054-4.386
		C79.838,55.006,82.399,52.104,82.977,50.87z"/>
</g>
<g>
	<path fill="#006CB5" d="M118.82,192.323c0,22.919,18.58,41.499,41.5,41.499s41.5-18.58,41.5-41.499"/>
</g>
<g>
	<ellipse fill="#0099D7" cx="160.32" cy="192.323" rx="41.5" ry="8.616"/>
</g>
<g>
	<path fill="#8FD1F5" d="M133.411,193.545c0-2.773,2.248-5.021,5.021-5.021s5.021,2.247,5.021,5.021"/>
</g>
<g>
	<path fill="#8FD1F5" d="M154.413,190.451c0-4.097,3.32-7.417,7.416-7.417s7.416,3.32,7.416,7.417"/>
</g>
<g>
	<path fill="#8FD1F5" d="M173.413,190.542c0-3.275,2.656-5.932,5.933-5.932s5.932,2.656,5.932,5.932"/>
</g>
<g>
	<path fill="#8FD1F5" d="M153.413,197.548c0-2.733,2.215-4.948,4.947-4.948c2.734,0,4.949,2.215,4.949,4.948"/>
</g>
<g opacity="0.4">
	<g>
		<g>
			<g>
				<polygon fill="#FFFFFF" points="157.493,218.398 155.358,221.47 156.222,222.609 158.266,219.607 160.44,216.415 
					159.779,215.108 				"/>
			</g>
			<g>
				<polygon fill="#FFFFFF" points="155.358,221.47 156.222,222.609 158.266,219.607 157.493,218.398 				"/>
			</g>
			<g>
				<polygon fill="#FFFFFF" points="159.779,215.108 157.493,218.398 158.266,219.607 160.44,216.415 				"/>
			</g>
			<g>
				<polygon fill="#FFFFFF" points="155.362,221.468 156.226,222.606 160.552,219.859 161.478,221.521 160.313,222.829 
					158.728,223.357 158.01,222.417 156.741,223.229 158.132,225.04 161.183,224.158 163.257,221.782 161.154,217.764 				"/>
			</g>
			<g opacity="0.05">
				<g>
					<polygon fill="#FFFFFF" points="158.268,219.61 155.358,221.47 156.222,222.609 159.04,220.819 					"/>
				</g>
				<g>
					<polygon fill="#FFFFFF" points="160.319,222.819 160.309,222.832 158.724,223.36 158.005,222.42 156.737,223.232 
						158.128,225.042 161.178,224.161 					"/>
				</g>
			</g>
			<g>
				<polygon fill="#FFFFFF" points="153.491,219.128 159.779,215.108 160.44,216.415 154.427,220.258 				"/>
			</g>
			<g opacity="0.05">
				<polygon fill="#FFFFFF" points="156.663,217.1 153.491,219.128 154.427,220.258 157.448,218.328 				"/>
			</g>
		</g>
	</g>
</g>
<g opacity="0.5">
	<g>
		<g>
			<g>
				<polygon fill="#FFFFFF" points="142.753,214.637 141.377,216.618 141.933,217.351 143.251,215.417 144.651,213.358 
					144.226,212.516 				"/>
			</g>
			<g>
				<polygon fill="#FFFFFF" points="141.377,216.618 141.933,217.351 143.251,215.417 142.753,214.637 				"/>
			</g>
			<g>
				<polygon fill="#FFFFFF" points="144.226,212.516 142.753,214.637 143.251,215.417 144.651,213.358 				"/>
			</g>
			<g>
				<polygon fill="#FFFFFF" points="141.38,216.616 141.937,217.349 144.724,215.579 145.321,216.65 144.57,217.493 
					143.548,217.833 143.085,217.228 142.269,217.75 143.165,218.917 145.13,218.349 146.468,216.818 145.112,214.229 				"/>
			</g>
			<g opacity="0.05">
				<g>
					<polygon fill="#FFFFFF" points="143.252,215.418 141.377,216.618 141.933,217.351 143.75,216.198 					"/>
				</g>
				<g>
					<polygon fill="#FFFFFF" points="144.575,217.487 144.567,217.495 143.546,217.835 143.083,217.23 142.265,217.752 
						143.161,218.919 145.128,218.351 					"/>
				</g>
			</g>
			<g>
				<polygon fill="#FFFFFF" points="140.173,215.108 144.226,212.516 144.651,213.358 140.776,215.836 				"/>
			</g>
			<g opacity="0.05">
				<polygon fill="#FFFFFF" points="142.218,213.801 140.173,215.108 140.776,215.836 142.724,214.592 				"/>
			</g>
		</g>
	</g>
</g>
<g opacity="0.1">
	<g>
		<g>
			<g>
				<polygon fill="#FFFFFF" points="175.907,213.601 172.513,212.028 171.54,213.075 174.849,214.571 178.368,216.163 
					179.542,215.287 				"/>
			</g>
			<g>
				<polygon fill="#FFFFFF" points="172.513,212.028 171.54,213.075 174.849,214.571 175.907,213.601 				"/>
			</g>
			<g>
				<polygon fill="#FFFFFF" points="179.542,215.287 175.907,213.601 174.849,214.571 178.368,216.163 				"/>
			</g>
			<g>
				<polygon fill="#FFFFFF" points="172.515,212.032 171.544,213.079 174.994,216.866 173.517,218.064 172.028,217.142 
					171.234,215.671 172.036,214.803 171.019,213.693 169.475,215.375 170.868,218.228 173.566,219.863 177.161,217.099 				"/>
			</g>
			<g opacity="0.05">
				<g>
					<polygon fill="#FFFFFF" points="174.847,214.574 172.513,212.028 171.54,213.075 173.788,215.543 					"/>
				</g>
				<g>
					<polygon fill="#FFFFFF" points="172.038,217.148 172.024,217.139 171.231,215.668 172.032,214.799 171.015,213.69 
						169.471,215.372 170.864,218.224 					"/>
				</g>
			</g>
			<g>
				<polygon fill="#FFFFFF" points="174.497,209.786 179.542,215.287 178.368,216.163 173.546,210.902 				"/>
			</g>
			<g opacity="0.05">
				<polygon fill="#FFFFFF" points="177.042,212.56 174.497,209.786 173.546,210.902 175.968,213.545 				"/>
			</g>
		</g>
	</g>
</g>
<g>
	<path fill="#E7511D" d="M150.294,114.77c-0.035-0.176-0.105-0.246-0.176-0.246s-0.105,0.105-0.105,0.281v6.782
		c0,0.211-0.21,0.457-0.456,0.457h-5.868c-0.211,0-0.422-0.246-0.422-0.527V96.04c0-0.176,0.141-0.352,0.316-0.352h5.974
		c0.281,0,0.456,0.141,0.456,0.352v6.114c0,0.141,0.035,0.246,0.105,0.246s0.141-0.07,0.211-0.246l1.371-6.149
		c0.07-0.176,0.211-0.316,0.387-0.316h6.185c0.141,0,0.246,0.105,0.246,0.281c0,0.07,0,0.141-0.035,0.211l-4.463,11.631
		c-0.07,0.141-0.105,0.387-0.105,0.457s0.035,0.281,0.07,0.387l4.604,13.037c0.07,0.211,0,0.352-0.211,0.352h-6.466
		c-0.141,0-0.246-0.105-0.281-0.281L150.294,114.77z"/>
	<path fill="#E7511D" d="M157.886,103.7c0-5.446,3.408-8.082,7.309-8.082c3.901,0,7.311,2.636,7.311,8.082v10.402
		c0,5.411-3.444,8.047-7.311,8.047c-3.865,0-7.309-2.601-7.309-8.047V103.7z M164.633,113.997c0,0.526,0.175,0.913,0.562,0.913
		s0.562-0.387,0.562-0.913v-10.191c0-0.457-0.176-0.948-0.562-0.948s-0.562,0.456-0.562,0.948V113.997z"/>
	<path fill="#E7511D" d="M174.121,122.044c-0.281,0-0.422-0.176-0.422-0.422V96.215c0-0.28,0.176-0.526,0.457-0.526h6.29
		c5.588,0,8.891,3.549,8.891,9.944v6.536c0,5.693-3.197,9.875-8.645,9.875H174.121z M182.274,103.595
		c0-0.352-0.105-0.633-0.316-0.808c-0.141-0.105-0.422-0.211-0.598-0.211c-0.141,0-0.211,0.105-0.211,0.316v11.666
		c0,0.211,0.07,0.281,0.211,0.281c0.211,0,0.914,0,0.914-1.019V103.595z"/>
	<path fill="#006CB5" d="M203.499,114.77c0.246,0,0.387,0.176,0.387,0.352v6.536c0,0.211-0.176,0.387-0.387,0.387h-12.58
		c-0.211,0-0.387-0.211-0.387-0.457V96.181c0-0.211,0.211-0.492,0.457-0.492h5.938c0.21,0,0.351,0.176,0.351,0.387v18.448
		c0,0.141,0.105,0.246,0.211,0.246H203.499z"/>
	<path fill="#006CB5" d="M216.431,95.688c0.246,0,0.422,0.211,0.457,0.457l4.814,25.125c0.07,0.387-0.105,0.773-0.492,0.773h-5.692
		c-0.211,0-0.421-0.141-0.456-0.352l-0.703-5.271c-0.035-0.175-0.176-0.28-0.352-0.28h-1.898c-0.141,0-0.281,0.141-0.316,0.351
		l-0.667,5.166c-0.035,0.246-0.281,0.387-0.457,0.387h-5.798c-0.316,0-0.492-0.246-0.422-0.598l4.709-25.336
		c0.035-0.176,0.211-0.422,0.422-0.422H216.431z M213.339,108.937c-0.07-0.492-0.141-0.809-0.246-0.809s-0.176,0.246-0.246,0.809
		l-0.457,3.338c-0.035,0.176,0.035,0.352,0.211,0.352c1.125,0,1.23,0,1.195-0.316L213.339,108.937z"/>
	<path fill="#006CB5" d="M222.44,96.11c0-0.246,0.141-0.422,0.387-0.422h6.536c4.568,0,7.169,3.408,7.169,6.325
		c0,2.108-0.035,5.342-3.584,6.431v0.07c2.213,0.809,3.689,3.163,3.689,5.903c0,1.793-0.035,7.626-7.31,7.626h-6.536
		c-0.246,0-0.352-0.176-0.352-0.387V96.11z M228.731,105.598c0,0.141,0.105,0.246,0.246,0.246c0.491,0,1.019-0.316,1.019-1.019
		v-3.022c0-0.633-0.598-0.914-1.019-0.914c-0.141,0-0.246,0.07-0.246,0.211V105.598z M228.731,116.526
		c0,0.141,0.07,0.246,0.246,0.246c0.562,0,1.054-0.421,1.054-1.019v-3.69c0-0.597-0.527-0.948-1.089-0.948
		c-0.141,0-0.211,0.105-0.211,0.281V116.526z"/>
	<path fill="#006CB5" d="M237.833,96.11c0-0.246,0.141-0.422,0.387-0.422h6.535c4.568,0,7.17,3.408,7.17,6.325
		c0,2.108-0.035,5.342-3.585,6.431v0.07c2.214,0.809,3.69,3.163,3.69,5.903c0,1.793-0.035,7.626-7.311,7.626h-6.535
		c-0.246,0-0.352-0.176-0.352-0.387V96.11z M244.123,105.598c0,0.141,0.105,0.246,0.246,0.246c0.491,0,1.019-0.316,1.019-1.019
		v-3.022c0-0.633-0.598-0.914-1.019-0.914c-0.141,0-0.246,0.07-0.246,0.211V105.598z M244.123,116.526
		c0,0.141,0.07,0.246,0.246,0.246c0.562,0,1.054-0.421,1.054-1.019v-3.69c0-0.597-0.527-0.948-1.089-0.948
		c-0.141,0-0.211,0.105-0.211,0.281V116.526z"/>
</g>
<g>
	<path fill="#E7511D" d="M94.062,188.823c0,22.919-18.58,41.499-41.5,41.499s-41.5-18.58-41.5-41.499"/>
</g>
<g>
	<ellipse fill="#EC6823" cx="52.562" cy="188.823" rx="41.5" ry="8.616"/>
</g>
<g>
	<path fill="#F6B19E" d="M26.042,188.542c0-2.815,2.283-5.098,5.099-5.098c2.815,0,5.098,2.282,5.098,5.098"/>
</g>
<g>
	<path fill="#F6B19E" d="M42.407,194.452c0-4.097,3.32-7.417,7.417-7.417s7.417,3.32,7.417,7.417"/>
</g>
<g>
	<path fill="#F6B19E" d="M60.408,189.573c0-2.383,1.932-4.314,4.315-4.314c2.383,0,4.314,1.932,4.314,4.314"/>
</g>
<g opacity="0.3">
	<g>
		<path fill="#FFFFFF" d="M38.019,212.208l-0.596-1.699l-2.249,0.788l-0.764-1.685l2.403-0.843l-0.596-1.699l-0.006,0.002
			l-4.254,1.491l0.2,0.441l2.059,4.536L38.019,212.208z M38.019,212.208"/>
	</g>
	<g>
		<path fill="#FFFFFF" d="M38.969,214.92l-0.007,0.005l-2.07,0.152l-0.596-1.312l-0.919,0.321l-0.786,0.276l1.173,2.584l3.818-0.254
			l0.007-0.005L38.969,214.92z M38.969,214.92"/>
	</g>
	<g>
		<path fill="#FFFFFF" d="M41.366,209.125l-0.458,0.161l-3.492,1.224l0.596,1.699l2.092-0.732l0.575,2.271l-1.716,1.176l0.619,1.768
			l3.145-2.186l-0.075-0.297l-1.168-4.613L41.366,209.125z M41.366,209.125"/>
	</g>
	<g>
		<path fill="#FFFFFF" d="M40.467,205.581l-4.256,1.491l0.37,1.056l0.224,0.639l0.001,0.006l4.098-1.438l0,0l0.005-0.002l-0.1-0.395
			l-0.225-0.889L40.467,205.581z M40.467,205.581"/>
	</g>
</g>
<g opacity="0.4">
	<g>
		<path fill="#FFFFFF" d="M78.437,210.917l0.636-1.32l-1.746-0.84l0.531-1.41l1.866,0.9l0.636-1.32l-0.004-0.002l-3.303-1.592
			l-0.139,0.369l-1.429,3.791L78.437,210.917z M78.437,210.917"/>
	</g>
	<g>
		<path fill="#FFFFFF" d="M77.421,213.022h-0.007l-1.278-1.105l0.413-1.098l-0.713-0.344l-0.611-0.295l-0.813,2.162l2.34,2.051
			l0.007,0.002L77.421,213.022z M77.421,213.022"/>
	</g>
	<g>
		<path fill="#FFFFFF" d="M82.134,211.073l-0.355-0.172l-2.711-1.307l-0.636,1.32l1.625,0.783l-0.978,1.637l-1.663-0.312
			l-0.662,1.372l3.065,0.555l0.127-0.214l1.985-3.324L82.134,211.073z M82.134,211.073"/>
	</g>
	<g>
		<path fill="#FFFFFF" d="M83.659,208.518l-3.304-1.594l-0.395,0.82l-0.239,0.496l-0.002,0.004l3.182,1.533l0,0l0.004,0.002
			l0.17-0.283l0.382-0.641L83.659,208.518z M83.659,208.518"/>
	</g>
</g>
<g opacity="0.4">
	<g>
		<path fill="#FFFFFF" d="M56.674,222.585l-0.222-0.915l-1.21,0.293l-0.31-0.917l1.293-0.312l-0.222-0.915l-0.003,0.001l-2.29,0.554
			l0.081,0.241l0.835,2.466L56.674,222.585z M56.674,222.585"/>
	</g>
	<g>
		<path fill="#FFFFFF" d="M57.027,224.045l-0.004,0.002l-1.085-0.028l-0.242-0.714l-0.495,0.119l-0.424,0.104l0.477,1.404
			L57.254,225l0.004-0.002L57.027,224.045z M57.027,224.045"/>
	</g>
	<g>
		<path fill="#FFFFFF" d="M58.575,221.156l-0.247,0.06l-1.879,0.455l0.221,0.915l1.127-0.272l0.181,1.211l-0.954,0.523l0.23,0.951
			l1.749-0.974l-0.023-0.157l-0.368-2.461L58.575,221.156z M58.575,221.156"/>
	</g>
	<g>
		<path fill="#FFFFFF" d="M58.292,219.265l-2.291,0.555l0.138,0.567l0.083,0.345l0,0.003l2.207-0.534l0,0l0.002-0.001l-0.031-0.21
			l-0.071-0.475L58.292,219.265z M58.292,219.265"/>
	</g>
</g>
</svg>
